<?xml version="1.0" standalone="no"?>
<!DOCTYPE svg PUBLIC "-//W3C//DTD SVG 20010904//EN"
 "http://www.w3.org/TR/2001/REC-SVG-20010904/DTD/svg10.dtd">
<svg version="1.0" xmlns="http://www.w3.org/2000/svg"
 width="634.000000pt" height="314.000000pt" viewBox="0 0 634.000000 314.000000"
 preserveAspectRatio="xMidYMid meet">

<g transform="translate(0.000000,314.000000) scale(0.100000,-0.100000)"
fill="#000000" stroke="none">
<path d="M0 1570 l0 -1570 3170 0 3170 0 0 1570 0 1570 -3170 0 -3170 0 0
-1570z m1098 1155 c77 -18 184 -72 237 -118 37 -32 39 -37 24 -52 -14 -14 -18
-14 -43 6 -20 16 -27 28 -23 45 2 13 0 24 -4 24 -20 0 -7 -51 18 -75 32 -29
36 -30 53 -10 7 8 16 15 21 15 18 0 70 -67 109 -141 55 -105 73 -190 67 -309
-5 -100 -34 -207 -54 -203 -7 2 -10 -4 -7 -11 3 -8 -2 -29 -12 -48 -23 -46
-84 -119 -94 -113 -4 3 -14 -3 -21 -13 -13 -16 -12 -16 6 -2 14 10 13 7 -5
-13 -13 -15 -29 -26 -36 -23 -6 2 -26 -11 -44 -29 l-33 -34 -20 25 c-14 18
-18 34 -13 57 l5 32 -15 -28 c-15 -27 -14 -30 7 -53 19 -20 20 -26 9 -39 -24
-29 -65 -46 -80 -32 -9 8 -11 8 -7 1 14 -25 -66 -39 -203 -38 -86 1 -117 6
-172 26 -251 94 -408 312 -408 568 0 272 195 521 457 584 77 19 203 19 281 1z
m912 -280 c0 -131 2 -155 15 -155 9 0 15 -9 15 -25 0 -19 -5 -25 -23 -25 -13
0 -32 6 -43 14 -17 13 -19 30 -22 180 l-3 166 30 0 31 0 0 -155z m645 105 c0
-18 -6 -26 -23 -28 -24 -4 -38 18 -28 44 3 9 15 14 28 12 17 -2 23 -10 23 -28z
m1175 -170 c0 -72 -4 -130 -9 -130 -5 0 -11 5 -13 11 -3 9 -9 9 -25 0 -32 -17
-51 -14 -78 14 -34 33 -34 87 0 120 26 27 46 31 76 15 18 -10 19 -7 19 45 0
42 3 55 15 55 13 0 15 -21 15 -130z m-330 105 c0 -11 -11 -15 -40 -15 l-40 0
0 -110 c0 -67 -4 -110 -10 -110 -6 0 -10 38 -11 93 -1 50 -2 99 -3 107 -1 10
-14 16 -38 18 -25 2 -38 8 -38 18 0 11 18 14 90 14 73 0 90 -3 90 -15z m1360
-70 c0 -69 3 -85 15 -85 8 0 15 -7 15 -15 0 -8 -7 -15 -15 -15 -9 0 -15 -9
-15 -25 0 -16 -6 -25 -15 -25 -9 0 -15 9 -15 25 0 24 -3 25 -60 25 -47 0 -60
3 -60 15 0 8 25 53 55 100 39 61 60 85 75 85 18 0 20 -6 20 -85z m290 0 c0
-69 3 -85 15 -85 8 0 15 -7 15 -15 0 -8 -7 -15 -15 -15 -9 0 -15 -9 -15 -25 0
-16 -6 -25 -15 -25 -9 0 -15 9 -15 25 0 24 -3 25 -60 25 -47 0 -60 3 -60 15 0
8 25 53 55 100 39 61 60 85 75 85 18 0 20 -6 20 -85z m210 71 c0 -11 -15 -16
-52 -18 -53 -3 -53 -3 -59 -41 -5 -32 -4 -37 10 -31 42 17 60 15 85 -9 47 -47
26 -117 -39 -133 -29 -7 -81 11 -89 32 -8 21 13 28 33 10 46 -42 109 2 83 59
-9 18 -19 25 -41 25 -16 0 -32 -4 -36 -10 -3 -5 -13 -6 -21 -3 -13 5 -15 16
-9 62 4 31 9 59 12 64 2 4 31 7 64 7 45 0 59 -3 59 -14z m296 -11 c18 -24 18
-86 0 -110 -9 -13 -30 -20 -70 -23 l-56 -4 0 -44 c0 -32 -4 -44 -15 -44 -13 0
-15 21 -15 126 l0 126 71 -4 c55 -3 74 -8 85 -23z m148 -60 c15 -47 29 -85 31
-85 2 0 15 38 30 85 22 74 29 85 48 85 22 0 24 -6 35 -108 15 -136 15 -142 -2
-142 -10 0 -16 23 -21 88 -4 49 -10 94 -14 100 -4 6 -19 -25 -35 -68 -37 -106
-54 -107 -86 -4 -13 41 -27 77 -31 79 -4 3 -10 -30 -14 -73 -9 -101 -14 -122
-32 -122 -10 0 -12 8 -8 33 5 34 25 196 25 209 0 5 10 8 23 8 20 0 26 -11 51
-85z m-3547 41 c29 -34 38 -88 24 -135 -16 -56 -44 -76 -103 -76 -42 0 -53 4
-73 28 -51 58 -41 161 18 198 43 27 104 20 134 -15z m612 19 c29 -15 51 -58
51 -101 0 -23 -3 -24 -80 -24 -44 0 -80 -3 -80 -6 0 -3 5 -14 11 -25 16 -30
49 -39 86 -24 27 12 34 11 44 -1 18 -22 -8 -44 -58 -51 -101 -13 -164 90 -115
187 28 56 85 75 141 45z m-469 -85 c0 -77 3 -91 18 -99 14 -7 25 -6 40 5 20
13 22 24 22 100 l0 84 30 0 30 0 0 -115 c0 -115 0 -115 -24 -115 -13 0 -26 5
-28 11 -2 7 -15 4 -35 -7 -25 -14 -38 -16 -59 -9 -42 15 -54 48 -54 148 l0 87
30 0 30 0 0 -90z m260 -25 l0 -115 -30 0 -30 0 0 115 0 115 30 0 30 0 0 -115z
m1890 80 c0 -20 5 -25 25 -25 16 0 25 -6 25 -16 0 -10 -7 -14 -22 -12 -21 3
-23 -1 -23 -52 0 -50 2 -55 23 -58 26 -4 25 -25 -2 -30 -32 -7 -46 17 -46 79
0 52 -2 59 -20 59 -11 0 -20 7 -20 15 0 8 9 15 20 15 15 0 20 7 20 25 0 14 5
25 10 25 6 0 10 -11 10 -25z m407 -31 c8 -22 -15 -44 -26 -25 -10 16 -4 41 10
41 5 0 12 -7 16 -16z m-1343 -15 c21 -16 26 -29 26 -64 0 -35 -5 -48 -26 -64
-35 -28 -69 -26 -99 4 -49 48 -17 145 48 145 13 0 36 -9 51 -21z m386 1 c26
-26 30 -150 5 -150 -8 0 -15 7 -15 15 0 12 -5 11 -29 -2 -27 -16 -30 -16 -55
0 -14 10 -26 23 -26 31 0 21 32 44 73 51 28 6 37 12 35 24 -3 12 -14 16 -51
14 -50 -1 -62 12 -24 27 36 14 66 11 87 -10z m111 -40 c12 -34 25 -57 29 -53
4 4 15 32 26 61 10 28 24 52 32 52 16 0 14 -6 -32 -119 -18 -45 -40 -91 -49
-102 -20 -23 -57 -25 -57 -4 0 8 9 15 20 15 22 0 44 34 37 59 -2 9 -16 46 -30
84 -20 52 -23 67 -12 67 8 0 23 -26 36 -60z m329 40 c26 -26 30 -150 5 -150
-8 0 -15 7 -15 15 0 12 -5 11 -29 -2 -27 -16 -30 -16 -55 0 -14 10 -26 23 -26
31 0 21 32 44 73 51 28 6 37 12 35 24 -3 12 -14 16 -51 14 -50 -1 -62 12 -24
27 36 14 66 11 87 -10z m-1415 -125 c0 -25 -4 -30 -25 -30 -16 0 -26 6 -28 18
-6 30 6 49 30 45 18 -2 23 -9 23 -33z m1932 9 c8 -22 -15 -44 -26 -25 -10 16
-4 41 10 41 5 0 12 -7 16 -16z m-1918 -211 c-1 -16 -5 -39 -9 -53 -6 -20 -8
-14 -9 28 -1 28 3 52 9 52 6 0 10 -12 9 -27z m1 -140 c0 -10 -5 -25 -10 -33
-7 -11 -10 -7 -10 18 0 17 5 32 10 32 6 0 10 -8 10 -17z m-342 -139 c12 -8 27
-12 32 -9 6 3 7 -1 4 -10 -4 -9 -3 -15 2 -14 23 4 35 -3 48 -29 8 -15 33 -37
57 -49 31 -16 39 -24 28 -28 -11 -4 -14 -14 -11 -32 4 -23 2 -25 -14 -18 -18
9 -69 10 -105 3 -8 -2 -28 -13 -43 -25 -15 -12 -36 -25 -47 -28 -10 -4 -19
-10 -19 -15 0 -5 -18 -19 -39 -31 -35 -19 -61 -53 -61 -79 0 -25 33 -4 111 70
l84 81 50 -4 c44 -4 54 -10 90 -49 50 -56 79 -133 73 -196 -3 -30 -24 -86 -57
-152 -38 -78 -52 -117 -53 -152 -1 -47 7 -72 21 -64 4 3 14 38 21 78 8 40 24
88 37 107 13 19 23 38 23 42 0 5 4 9 8 9 12 0 32 -70 32 -109 0 -58 -63 -210
-100 -241 -3 -3 -17 -23 -30 -45 -60 -102 -137 -140 -217 -106 -22 9 -64 56
-81 92 -3 6 101 59 118 59 6 0 8 5 4 11 -3 6 -19 9 -35 5 -22 -4 -29 -2 -29 9
0 8 -7 15 -15 15 -8 0 -15 5 -15 11 0 6 8 8 19 4 12 -3 21 0 25 10 3 8 12 15
19 15 8 0 20 6 26 14 9 11 6 15 -13 20 -24 6 -136 0 -182 -9 -26 -6 -74 30
-74 54 0 10 -13 22 -33 29 -19 7 -43 22 -54 35 -49 55 -85 207 -49 207 8 0 18
-5 21 -10 11 -18 23 -1 17 25 -5 27 7 32 39 15 25 -14 59 4 59 32 0 19 -4 20
-44 16 -37 -5 -45 -2 -49 13 -8 29 -47 13 -47 -20 -1 -25 -1 -25 -15 -7 -18
24 -20 83 -2 89 6 2 23 0 37 -5 13 -5 58 -16 99 -23 41 -8 78 -20 83 -27 5 -9
8 -8 8 5 0 10 -8 17 -19 17 -10 0 -25 9 -32 20 -9 13 -33 24 -69 30 -30 6 -59
15 -64 20 -6 6 -17 10 -26 10 -30 0 -42 22 -23 42 11 13 12 18 3 18 -10 0 -10
3 0 15 7 9 12 35 12 59 -2 35 3 48 25 70 14 14 38 29 52 33 14 3 32 11 40 16
7 6 19 12 27 13 7 1 26 11 41 21 15 11 36 23 46 26 9 4 17 10 17 15 0 15 182
2 208 -14z m329 -66 c-2 -13 -4 -5 -4 17 -1 22 1 32 4 23 2 -10 2 -28 0 -40z
m-1697 -52 c0 -2 -8 -10 -17 -17 -16 -13 -17 -12 -4 4 13 16 21 21 21 13z
m1720 -271 c0 -8 4 -15 10 -15 18 0 22 -66 6 -103 -12 -29 -21 -37 -40 -37
-25 0 -26 2 -25 58 0 43 3 52 10 37 7 -16 8 -12 5 16 -4 34 7 59 26 59 4 0 8
-7 8 -15z m-55 -438 c22 -22 56 -180 53 -244 l-3 -58 -170 -2 c-165 -2 -169
-1 -126 14 63 22 118 86 176 202 28 54 51 100 53 100 2 1 9 -5 17 -12z m114
-74 c8 -26 20 -59 28 -73 11 -20 12 -40 5 -95 -7 -48 -10 -58 -11 -32 0 21 -7
48 -15 60 -19 30 -32 92 -17 83 20 -13 12 21 -19 79 -36 68 -37 75 -7 47 12
-12 29 -43 36 -69z m-552 5 c-3 -8 -6 -5 -6 6 -1 11 2 17 5 13 3 -3 4 -12 1
-19z m-91 -164 c25 -4 28 -12 18 -42 -9 -25 -14 -27 -67 -30 l-57 -3 10 26 c5
14 20 39 32 56 21 28 24 29 35 13 7 -10 20 -19 29 -20z m97 -66 c-2 -5 -11 -8
-19 -8 -15 0 -17 12 -7 49 l6 23 12 -28 c7 -16 10 -32 8 -36z m67 4 l35 -10
-37 -1 c-29 -1 -40 4 -49 22 -10 19 -10 20 2 10 8 -6 30 -16 49 -21z m-303 -8
c-3 -3 -12 -4 -19 -1 -8 3 -5 6 6 6 11 1 17 -2 13 -5z"/>
<path d="M893 2633 c9 -2 23 -2 30 0 6 3 -1 5 -18 5 -16 0 -22 -2 -12 -5z"/>
<path d="M988 2633 c6 -2 18 -2 25 0 6 3 1 5 -13 5 -14 0 -19 -2 -12 -5z"/>
<path d="M845 2620 c-3 -6 1 -7 9 -4 18 7 21 14 7 14 -6 0 -13 -4 -16 -10z"/>
<path d="M758 2583 c7 -3 16 -2 19 1 4 3 -2 6 -13 5 -11 0 -14 -3 -6 -6z"/>
<path d="M1270 2497 c0 -2 14 -16 31 -33 32 -29 32 -29 15 -2 -14 21 -46 46
-46 35z"/>
<path d="M1335 2370 c3 -5 11 -10 16 -10 6 0 7 5 4 10 -3 6 -11 10 -16 10 -6
0 -7 -4 -4 -10z"/>
<path d="M1305 2250 c-4 -6 -11 -8 -16 -5 -11 7 -12 -5 -1 -22 5 -8 11 -3 19
13 11 24 10 33 -2 14z"/>
<path d="M1360 2246 c7 -7 13 -7 20 0 6 6 3 10 -10 10 -13 0 -16 -4 -10 -10z"/>
<path d="M932 2237 c10 -8 16 -16 14 -18 -2 -2 10 -5 27 -6 18 0 25 1 17 4 -8
3 -28 12 -45 20 -25 12 -27 12 -13 0z"/>
<path d="M951 2195 c0 -5 6 -21 14 -35 8 -14 14 -20 14 -15 0 6 -6 21 -14 35
-8 14 -14 21 -14 15z"/>
<path d="M1021 2155 c-57 -46 -45 -45 15 0 25 19 42 35 37 35 -4 0 -28 -16
-52 -35z"/>
<path d="M1300 2181 c0 -7 -5 -9 -12 -5 -7 5 -8 3 -3 -5 5 -9 10 -10 18 -2 6
6 8 14 4 18 -4 3 -7 1 -7 -6z"/>
<path d="M1119 2156 c-49 -17 -101 -55 -96 -70 3 -6 10 -10 16 -8 6 1 11 -6
11 -15 1 -17 1 -17 11 -1 5 9 16 15 24 12 8 -4 18 1 21 10 3 9 13 16 20 16 11
0 12 4 4 19 -8 16 -6 21 10 26 11 3 20 11 20 16 0 11 3 11 -41 -5z"/>
<path d="M1220 2133 c0 -21 3 -24 9 -14 5 8 7 20 4 28 -8 21 -13 15 -13 -14z"/>
<path d="M505 2139 c-4 -6 -5 -12 -2 -15 2 -3 7 2 10 11 7 17 1 20 -8 4z"/>
<path d="M1311 2134 c0 -11 3 -14 6 -6 3 7 2 16 -1 19 -3 4 -6 -2 -5 -13z"/>
<path d="M950 2105 c20 -24 70 -58 70 -47 0 4 -19 21 -42 36 -23 15 -35 20
-28 11z"/>
<path d="M1281 2086 c0 -12 3 -16 5 -9 3 7 11 11 17 9 7 -1 9 -1 4 1 -4 3 -5
8 -3 12 3 4 -1 8 -9 8 -9 0 -15 -9 -14 -21z"/>
<path d="M1391 2084 c0 -11 3 -14 6 -6 3 7 2 16 -1 19 -3 4 -6 -2 -5 -13z"/>
<path d="M1426 2087 c3 -10 9 -15 12 -12 3 3 0 11 -7 18 -10 9 -11 8 -5 -6z"/>
<path d="M740 2055 c0 -10 3 -15 7 -12 3 4 15 -1 26 -10 10 -10 22 -17 26 -16
3 0 5 -3 4 -8 -2 -4 3 -6 11 -3 8 3 17 1 21 -5 3 -6 11 -11 18 -11 6 0 -5 11
-26 25 -20 14 -39 24 -41 23 -2 -2 -13 6 -25 16 -20 18 -21 18 -21 1z"/>
<path d="M1430 2015 c0 -23 -3 -27 -10 -15 -5 8 -10 10 -10 4 0 -15 29 -39 37
-30 3 3 1 6 -6 6 -8 0 -9 5 -2 18 6 11 6 24 0 33 -6 10 -9 6 -9 -16z"/>
<path d="M750 2026 c0 -2 8 -10 18 -17 15 -13 16 -12 3 4 -13 16 -21 21 -21
13z"/>
<path d="M1013 2013 c9 -2 23 -2 30 0 6 3 -1 5 -18 5 -16 0 -22 -2 -12 -5z"/>
<path d="M760 1980 c0 -5 4 -10 10 -10 5 0 6 -8 3 -17 -7 -17 -6 -17 11 0 16
16 30 21 49 18 5 -1 6 3 2 9 -4 7 -12 7 -23 1 -10 -6 -23 -6 -34 0 -12 6 -18
6 -18 -1z"/>
<path d="M855 1960 c6 -10 2 -12 -18 -8 -15 3 -24 1 -21 -4 3 -5 -1 -17 -10
-27 -15 -17 -15 -20 1 -38 10 -10 14 -13 9 -6 -12 19 3 31 15 13 10 -13 10
-13 6 0 -5 16 17 43 27 33 3 -4 6 0 6 8 0 11 2 11 10 -1 5 -8 10 -13 11 -10 0
3 2 13 4 23 2 9 -1 17 -5 17 -5 0 -16 3 -26 7 -13 5 -15 3 -9 -7z"/>
<path d="M1450 1946 c0 -2 8 -10 18 -17 15 -13 16 -12 3 4 -13 16 -21 21 -21
13z"/>
<path d="M600 1916 c0 -2 8 -10 18 -17 15 -13 16 -12 3 4 -13 16 -21 21 -21
13z"/>
<path d="M865 1870 c-10 -11 -16 -22 -14 -24 2 -2 12 7 22 20 22 29 17 32 -8
4z"/>
<path d="M823 1822 c10 -10 17 -26 17 -35 0 -10 8 -17 21 -17 11 0 17 5 14 10
-4 6 -11 7 -17 4 -6 -4 -8 -2 -5 3 4 6 0 16 -8 23 -8 7 -12 16 -9 21 3 5 -3 9
-12 9 -16 0 -16 -1 -1 -18z"/>
<path d="M883 1823 c9 -2 25 -2 35 0 9 3 1 5 -18 5 -19 0 -27 -2 -17 -5z"/>
<path d="M914 1725 c11 -8 27 -15 35 -15 9 0 3 7 -13 15 -36 19 -47 19 -22 0z"/>
<path d="M1060 1674 c0 -2 9 -8 20 -14 11 -6 20 -7 20 -2 0 6 -9 12 -20 15
-11 3 -20 3 -20 1z"/>
<path d="M1100 1636 c0 -2 8 -10 18 -17 15 -13 16 -12 3 4 -13 16 -21 21 -21
13z"/>
<path d="M3722 2378 c-17 -17 -15 -73 2 -87 8 -7 27 -11 43 -9 27 3 28 6 28
53 0 48 -1 50 -30 53 -17 2 -36 -3 -43 -10z"/>
<path d="M4782 2395 l-41 -65 44 0 45 0 0 65 c0 36 -1 65 -3 65 -2 0 -22 -29
-45 -65z"/>
<path d="M5072 2395 l-41 -65 44 0 45 0 0 65 c0 36 -1 65 -3 65 -2 0 -22 -29
-45 -65z"/>
<path d="M5530 2420 l0 -50 43 0 c49 0 67 13 67 50 0 37 -18 50 -67 50 l-43 0
0 -50z"/>
<path d="M2139 2423 c-8 -9 -14 -35 -14 -58 0 -51 18 -75 55 -75 37 0 55 24
55 75 0 51 -18 75 -55 75 -15 0 -34 -7 -41 -17z"/>
<path d="M2782 2422 l-27 -27 54 -3 c29 -2 56 0 59 3 10 10 -12 37 -37 46 -17
7 -28 3 -49 -19z"/>
<path d="M3532 2378 c-17 -17 -15 -73 2 -87 8 -7 27 -11 42 -9 57 6 53 108 -4
108 -15 0 -33 -5 -40 -12z"/>
<path d="M3925 2317 c-22 -17 -12 -37 19 -37 25 0 46 17 46 37 0 17 -41 17
-65 0z"/>
<path d="M4365 2317 c-22 -17 -12 -37 19 -37 25 0 46 17 46 37 0 17 -41 17
-65 0z"/>
<path d="M2725 1463 c-50 -10 -95 -36 -95 -57 0 -20 1 -20 16 2 14 21 18 22
33 8 19 -17 57 -11 65 10 3 8 16 14 30 14 22 0 49 19 29 21 -4 0 -19 2 -33 3
-14 2 -34 1 -45 -1z"/>
<path d="M2530 1401 c0 -6 4 -13 10 -16 6 -3 7 1 4 9 -7 18 -14 21 -14 7z"/>
<path d="M2451 1275 c0 -22 4 -60 7 -85 6 -37 9 -41 16 -25 18 44 17 90 -4
120 l-20 30 1 -40z"/>
<path d="M2550 1236 c0 -34 2 -36 44 -47 50 -12 82 -53 56 -69 -9 -6 -17 -5
-21 2 -5 8 -22 7 -61 -5 -53 -17 -96 -14 -110 7 -5 7 -8 4 -8 -6 0 -10 6 -18
14 -18 8 0 13 -8 12 -17 -1 -22 27 -28 45 -11 8 8 31 22 52 32 35 16 40 16 56
2 16 -15 19 -15 35 3 11 12 15 27 12 38 -7 23 -65 86 -100 109 l-26 16 0 -36z"/>
<path d="M2725 985 c-30 -24 -31 -40 -2 -29 17 6 52 54 40 54 -5 -1 -21 -12
-38 -25z"/>
</g>
</svg>
